<svg width="160" height="128" viewBox="0 0 160 128" fill="none" xmlns="http://www.w3.org/2000/svg">
<g clip-path="url(#clip0_5655_28241)">
<path d="M81.0187 154.044C116.97 131.841 88.3971 117.963 144.932 92.2685C176.136 78.0863 152.738 24.7266 129.98 12.0563C114.702 3.55101 94.1928 14.3119 91.3734 31.5707C90.5262 36.7579 91.2415 42.611 88.14 46.8548C76.8772 62.266 57.9468 44.5101 54.0206 30.4479C50.2125 16.811 42.994 -6.1318 22.1934 4.08351C-34.2719 31.8141 28.7112 186.347 81.0187 154.044Z" fill="url(#paint0_linear_5655_28241)"/>
<path opacity="0.1" d="M141.489 29.6877H123.027V20.0874C123.027 18.3615 121.628 16.9624 119.902 16.9624H37.8952C36.1693 16.9624 34.7702 18.3615 34.7702 20.0874V94.6265C32.2543 92.8943 29.2074 91.878 25.9218 91.878C17.2924 91.878 10.2968 98.8737 10.2968 107.503C10.2968 116.033 17.1327 122.961 25.6246 123.121C22.648 125.966 20.7908 129.972 20.7908 134.415C20.7908 143.044 27.7864 150.04 36.4158 150.04C43.4236 150.04 49.3536 145.426 51.3352 139.071H56.3574V148.669C56.3574 150.397 57.7574 151.794 59.4824 151.794H141.489C143.217 151.794 144.614 150.397 144.614 148.669V32.8127C144.614 31.0846 143.217 29.6877 141.489 29.6877Z" fill="#2626BC"/>
<path d="M144.613 25.312V141.168C144.613 142.896 143.216 144.293 141.488 144.293H59.4816C57.7566 144.293 56.3566 142.896 56.3566 141.168V25.312C56.3566 23.5839 57.7566 22.187 59.4816 22.187H141.488C143.216 22.187 144.613 23.5839 144.613 25.312Z" fill="#6582FD"/>
<path d="M56.3566 132.169V141.168C56.3566 142.894 57.7556 144.293 59.4816 144.293H141.488C143.214 144.293 144.613 142.894 144.613 141.168V25.3105C144.613 23.5846 143.214 22.1855 141.488 22.1855H132.041" stroke="#2626BC" stroke-width="1.95312" stroke-miterlimit="10" stroke-linecap="round" stroke-linejoin="round"/>
<path d="M70.4651 84.2578H94.7407C95.6035 84.2578 96.3032 83.5581 96.3032 82.6953C96.3032 81.8325 95.6035 81.1328 94.7407 81.1328H70.4651C69.6023 81.1328 68.9026 81.8325 68.9026 82.6953C68.9026 83.5584 69.602 84.2578 70.4651 84.2578Z" fill="#9EAFFD"/>
<path d="M70.4651 102.417H130.507C131.37 102.417 132.07 101.717 132.07 100.854C132.07 99.9912 131.37 99.2915 130.507 99.2915H70.4651C69.6023 99.2915 68.9026 99.9912 68.9026 100.854C68.9026 101.717 69.602 102.417 70.4651 102.417Z" fill="white"/>
<path d="M70.4651 95.3755H130.507C131.37 95.3755 132.07 94.6758 132.07 93.813C132.07 92.9502 131.37 92.2505 130.507 92.2505H70.4651C69.6023 92.2505 68.9026 92.9502 68.9026 93.813C68.9026 94.6758 69.602 95.3755 70.4651 95.3755Z" fill="white"/>
<path d="M70.4651 109.457H130.507C131.37 109.457 132.07 108.757 132.07 107.894C132.07 107.031 131.37 106.332 130.507 106.332H70.4651C69.6023 106.332 68.9026 107.031 68.9026 107.894C68.9026 108.757 69.602 109.457 70.4651 109.457Z" fill="white"/>
<path d="M70.4651 116.497H130.507C131.37 116.497 132.07 115.797 132.07 114.935C132.07 114.072 131.37 113.372 130.507 113.372H70.4651C69.6023 113.372 68.9026 114.072 68.9026 114.935C68.9026 115.798 69.602 116.497 70.4651 116.497Z" fill="white"/>
<path d="M70.4651 123.538H130.507C131.37 123.538 132.07 122.838 132.07 121.976C132.07 121.113 131.37 120.413 130.507 120.413H70.4651C69.6023 120.413 68.9026 121.113 68.9026 121.976C68.9026 122.838 69.602 123.538 70.4651 123.538Z" fill="white"/>
<path d="M123.029 12.5879V128.447C123.029 130.172 121.629 131.572 119.904 131.572H37.8977C36.1696 131.572 34.7727 130.172 34.7727 128.447V12.5879C34.7727 10.8629 36.1696 9.46289 37.8977 9.46289H119.904C121.629 9.46289 123.029 10.8629 123.029 12.5879Z" fill="white"/>
<path d="M110.154 131.57H47.6439V120.672C47.6439 118.946 49.043 117.547 50.7689 117.547H107.029C108.755 117.547 110.154 118.946 110.154 120.672V131.57Z" fill="#6582FD"/>
<path d="M34.7701 131.571H119.902C121.628 131.571 123.027 130.171 123.027 128.446V12.5874C123.027 10.8615 121.628 9.4624 119.902 9.4624H37.8951C36.1692 9.4624 34.7701 10.8615 34.7701 12.5874V131.571Z" stroke="#2626BC" stroke-width="1.95312" stroke-miterlimit="10" stroke-linecap="round" stroke-linejoin="round"/>
<path d="M95.0579 57.126C94.4654 56.6038 93.9432 55.7681 93.4914 54.6191L81.1582 22.8481C81.0723 22.6269 80.8592 22.481 80.622 22.481H77.3751C77.1379 22.481 76.9251 22.6263 76.8392 22.8472L65.2907 52.4781C64.1029 55.5594 62.7376 57.3535 61.1954 57.8603C60.9595 57.9378 60.7998 58.1572 60.7998 58.4056V60.0281C60.7998 60.346 61.0573 60.6035 61.3751 60.6035H70.6692C70.987 60.6035 71.2445 60.346 71.2445 60.0281V58.501C71.2445 58.2035 71.0176 57.9528 70.7211 57.9281C69.4461 57.8219 68.4632 57.5456 67.7717 57.0997L67.7626 57.0938C67.2842 56.7844 67.0879 56.1816 67.2926 55.65L70.587 47.0919H81.5632L83.9351 53.5747C84.3529 54.6191 84.5617 55.4547 84.5617 56.0816C84.5617 56.7435 84.2826 57.2044 83.7261 57.4653C83.2464 57.69 82.4832 57.8441 81.437 57.9269C81.1376 57.9506 80.9061 58.2 80.9061 58.5003V60.0285C80.9061 60.3463 81.1636 60.6038 81.4814 60.6038H96.2067C96.5245 60.6038 96.782 60.3463 96.782 60.0285V58.4435C96.782 58.1847 96.6095 57.9591 96.3601 57.89C95.9354 57.7722 95.5014 57.5175 95.0579 57.126ZM71.7898 43.9656L76.2176 32.4628L80.4354 43.9656H71.7898Z" fill="#6582FD"/>
<path d="M96.784 25.084H95.0375V23.3374C95.0375 22.8196 94.6178 22.3999 94.1 22.3999H92.2237C91.7059 22.3999 91.2862 22.8196 91.2862 23.3374V25.084H89.5397C89.0219 25.084 88.6022 25.5037 88.6022 26.0215V27.8977C88.6022 28.4155 89.0219 28.8352 89.5397 28.8352H91.2862V30.5818C91.2862 31.0996 91.7059 31.5193 92.2237 31.5193H94.1C94.6178 31.5193 95.0375 31.0996 95.0375 30.5818V28.8352H96.784C97.3019 28.8352 97.7215 28.4155 97.7215 27.8977V26.0215C97.7215 25.5037 97.3019 25.084 96.784 25.084Z" fill="#6582FD"/>
<path d="M71.9764 70.3247H87.1487C87.688 70.3247 88.1253 69.625 88.1253 68.7622C88.1253 67.8994 87.688 67.1997 87.1487 67.1997H71.9764C71.4372 67.1997 70.9999 67.8994 70.9999 68.7622C70.9999 69.625 71.4372 70.3247 71.9764 70.3247Z" fill="#6582FD"/>
<path d="M51.6574 96.9795H103.342C104.085 96.9795 104.687 96.2798 104.687 95.417C104.687 94.5542 104.085 93.8545 103.342 93.8545H51.6574C50.9147 93.8545 50.3124 94.5542 50.3124 95.417C50.3124 96.2798 50.9147 96.9795 51.6574 96.9795Z" fill="#6582FD"/>
<path d="M51.6544 89.9624H103.223C103.964 89.9624 104.565 89.2627 104.565 88.3999C104.565 87.5371 103.964 86.8374 103.223 86.8374H51.6544C50.9133 86.8374 50.3124 87.5371 50.3124 88.3999C50.3124 89.2627 50.9133 89.9624 51.6544 89.9624Z" fill="#6582FD"/>
<path d="M67.5809 104.167H89.9039C90.2247 104.167 90.4848 103.467 90.4848 102.604C90.4848 101.741 90.2247 101.042 89.9039 101.042H67.5809C67.2601 101.042 67 101.741 67 102.604C67 103.467 67.2601 104.167 67.5809 104.167Z" fill="#6582FD"/>
<path d="M10.7288 25.8331C12.6848 25.8331 14.2704 24.2475 14.2704 22.2916C14.2704 20.3356 12.6848 18.75 10.7288 18.75C8.77287 18.75 7.18726 20.3356 7.18726 22.2916C7.18726 24.2475 8.77287 25.8331 10.7288 25.8331Z" stroke="#6582FD" stroke-width="1.95312" stroke-miterlimit="10" stroke-linecap="round" stroke-linejoin="round"/>
<path d="M24.7913 45.8331C26.7473 45.8331 28.3329 44.2475 28.3329 42.2916C28.3329 40.3356 26.7473 38.75 24.7913 38.75C22.8354 38.75 21.2498 40.3356 21.2498 42.2916C21.2498 44.2475 22.8354 45.8331 24.7913 45.8331Z" stroke="#6582FD" stroke-width="1.95312" stroke-miterlimit="10" stroke-linecap="round" stroke-linejoin="round"/>
<path d="M6.39099 124.748L6.42195 124.766" stroke="#6582FD" stroke-width="1.95312" stroke-miterlimit="10" stroke-linecap="round" stroke-linejoin="round"/>
<path d="M14.2048 124.748L14.1726 124.766" stroke="#6582FD" stroke-width="1.95312" stroke-miterlimit="10" stroke-linecap="round" stroke-linejoin="round"/>
<path d="M14.2048 124.748L14.1726 124.766" stroke="#6582FD" stroke-width="1.95312" stroke-miterlimit="10" stroke-linecap="round" stroke-linejoin="round"/>
<path d="M10.2975 122.492V122.529" stroke="#6582FD" stroke-width="1.95312" stroke-miterlimit="10" stroke-linecap="round" stroke-linejoin="round"/>
</g>
<defs>
<linearGradient id="paint0_linear_5655_28241" x1="12.4771" y1="119.171" x2="125.765" y2="5.88354" gradientUnits="userSpaceOnUse">
<stop stop-color="#D1DDFF" stop-opacity="0"/>
<stop offset="1" stop-color="#B6C4FF"/>
</linearGradient>
<clipPath id="clip0_5655_28241">
<rect width="160" height="128" fill="white"/>
</clipPath>
</defs>
</svg>
