<svg width="20" height="21" viewBox="0 0 20 21" fill="none" xmlns="http://www.w3.org/2000/svg">
<g clip-path="url(#clip0_5431_20527)">
<path d="M11.725 4.8499H5.58226C4.99871 4.8499 4.52515 4.37634 4.52515 3.79279V2.18212C4.52515 1.59856 4.99871 1.125 5.58226 1.125H11.725C12.3085 1.125 12.7821 1.59856 12.7821 2.18212V3.79279C12.7821 4.37706 12.3085 4.8499 11.725 4.8499Z" fill="#495057"/>
<path d="M18.828 12.5461C18.1709 11.8889 17.0995 11.8889 16.4423 12.5461L15.6624 13.3303L18.0494 15.7167L18.828 14.9381C19.4923 14.2746 19.4923 13.2103 18.828 12.5461Z" fill="#495057"/>
<path d="M14.9073 14.0889L10.7431 18.2459C10.6574 18.3388 10.6002 18.453 10.5788 18.5745L10.2645 20.4244C10.1931 20.8316 10.5502 21.1815 10.9574 21.1173L12.8073 20.803C12.9287 20.7816 13.043 20.7244 13.1287 20.6387L17.2929 16.4745L14.9073 14.0889Z" fill="#495057"/>
<path d="M14.7427 2.98877H13.8535V3.79232C13.8535 4.96586 12.8985 5.92084 11.7249 5.92084H5.58224C4.40799 5.92084 3.45373 4.96586 3.45373 3.79232V2.98877H2.55018C1.14307 2.98877 0.000244141 4.1316 0.000244141 5.5387V18.5741C0.000244141 19.9812 1.14307 21.124 2.55018 21.124H9.305C9.19643 20.8447 9.15572 20.5419 9.20858 20.2398L9.52214 18.3948C9.57785 18.0677 9.72785 17.7655 9.95356 17.5191L14.4999 12.9792L15.682 11.7907C16.1213 11.3507 16.6848 11.09 17.2912 11.015V5.54585C17.2927 4.12445 16.157 2.98877 14.7427 2.98877ZM7.54148 13.5835H4.44227C4.08728 13.5835 3.79943 13.2956 3.79943 12.9407C3.79943 12.5857 4.08728 12.2978 4.44227 12.2978H7.54148C7.89647 12.2978 8.18432 12.5857 8.18432 12.9407C8.18432 13.2956 7.89647 13.5835 7.54148 13.5835ZM11.3357 9.93502H4.44299C4.088 9.93502 3.80015 9.64717 3.80015 9.29218C3.80015 8.93719 4.088 8.64934 4.44299 8.64934H11.3357C11.6907 8.64934 11.9785 8.93719 11.9785 9.29218C11.9785 9.64717 11.6907 9.93502 11.3357 9.93502Z" fill="#495057"/>
</g>
<defs>
<clipPath id="clip0_5431_20527">
<rect width="20" height="20" fill="white" transform="translate(0 0.5)"/>
</clipPath>
</defs>
</svg>
