<svg width="20" height="21" viewBox="0 0 20 21" fill="none" xmlns="http://www.w3.org/2000/svg">
<g clip-path="url(#clip0_1512_53591)">
<path d="M11.725 4.84957H5.58226C4.99871 4.84957 4.52515 4.37601 4.52515 3.79245V2.18178C4.52515 1.59822 4.99871 1.12466 5.58226 1.12466H11.725C12.3085 1.12466 12.7821 1.59822 12.7821 2.18178V3.79245C12.7821 4.37672 12.3085 4.84957 11.725 4.84957Z" fill="#495057"/>
<path d="M18.828 12.5461C18.1709 11.8889 17.0995 11.8889 16.4423 12.5461L15.6624 13.3303L18.0494 15.7167L18.828 14.9381C19.4923 14.2746 19.4923 13.2103 18.828 12.5461Z" fill="#495057"/>
<path d="M14.9073 14.0885L10.7431 18.2456C10.6574 18.3384 10.6002 18.4527 10.5788 18.5741L10.2645 20.4241C10.1931 20.8312 10.5502 21.1812 10.9574 21.1169L12.8073 20.8026C12.9287 20.7812 13.043 20.7241 13.1287 20.6384L17.2929 16.4742L14.9073 14.0885Z" fill="#495057"/>
<path d="M14.7427 2.98868H13.8535V3.79223C13.8535 4.96577 12.8985 5.92075 11.7249 5.92075H5.58224C4.40799 5.92075 3.45373 4.96577 3.45373 3.79223V2.98868H2.55018C1.14307 2.98868 0.000244141 4.13151 0.000244141 5.53861V18.574C0.000244141 19.9811 1.14307 21.1239 2.55018 21.1239H9.305C9.19643 20.8446 9.15572 20.5418 9.20858 20.2397L9.52214 18.3947C9.57785 18.0676 9.72785 17.7654 9.95356 17.519L14.4999 12.9791L15.682 11.7906C16.1213 11.3506 16.6848 11.0899 17.2912 11.0149V5.54575C17.2927 4.12436 16.157 2.98868 14.7427 2.98868ZM7.54148 13.5834H4.44227C4.08728 13.5834 3.79943 13.2956 3.79943 12.9406C3.79943 12.5856 4.08728 12.2977 4.44227 12.2977H7.54148C7.89647 12.2977 8.18432 12.5856 8.18432 12.9406C8.18432 13.2956 7.89647 13.5834 7.54148 13.5834ZM11.3357 9.93493H4.44299C4.088 9.93493 3.80015 9.64708 3.80015 9.29209C3.80015 8.9371 4.088 8.64925 4.44299 8.64925H11.3357C11.6907 8.64925 11.9785 8.9371 11.9785 9.29209C11.9785 9.64708 11.6907 9.93493 11.3357 9.93493Z" fill="#495057"/>
</g>
<defs>
<clipPath id="clip0_1512_53591">
<rect width="20" height="20" fill="white" transform="translate(0 0.5)"/>
</clipPath>
</defs>
</svg>
