<svg width="24" height="24" viewBox="0 0 24 24" fill="none" xmlns="http://www.w3.org/2000/svg">
<path d="M3.25 5.25C3.25 4.83579 3.58579 4.5 4 4.5H20C20.4142 4.5 20.75 4.83579 20.75 5.25C20.75 5.66421 20.4142 6 20 6H4C3.58579 6 3.25 5.66421 3.25 5.25Z" fill="#0D6EFD"/>
<path d="M3.25 9.75C3.25 9.33579 3.5858 9 4 9H12C12.4142 9 12.75 9.33579 12.75 9.75C12.75 10.1642 12.4142 10.5 12 10.5H4C3.5858 10.5 3.25 10.1642 3.25 9.75Z" fill="#0D6EFD"/>
<path d="M3.25 14.25C3.25 13.8358 3.5858 13.5 4 13.5H12C12.4142 13.5 12.75 13.8358 12.75 14.25C12.75 14.6642 12.4142 15 12 15H4C3.5858 15 3.25 14.6642 3.25 14.25Z" fill="#0D6EFD"/>
<path d="M3.25 18.75C3.25 18.3358 3.58579 18 4 18H20C20.4142 18 20.75 18.3358 20.75 18.75C20.75 19.1642 20.4142 19.5 20 19.5H4C3.58579 19.5 3.25 19.1642 3.25 18.75Z" fill="#0D6EFD"/>
<path d="M15.3864 15.156C15.148 15.0238 15 14.7726 15 14.5V9.5C15 9.2274 15.148 8.9762 15.3864 8.844C15.6249 8.7118 15.9163 8.7195 16.1475 8.864L20.1475 11.364C20.3668 11.5011 20.5 11.7414 20.5 12C20.5 12.2586 20.3668 12.4989 20.1475 12.636L16.1475 15.136C15.9163 15.2805 15.6249 15.2882 15.3864 15.156ZM18.3349 12L16.5 10.8532V13.1468L18.3349 12Z" fill="#0D6EFD"/>
</svg>
