<svg width="28" height="29" viewBox="0 0 28 29" fill="none" xmlns="http://www.w3.org/2000/svg">
<g clip-path="url(#clip0_5431_20503)">
<path d="M24.7376 12.4527C24.6761 12.4131 24.6057 12.3894 24.5328 12.384C24.4599 12.3786 24.3868 12.3915 24.3202 12.4216L14 17.0814L3.67981 12.4216C3.6132 12.3916 3.54013 12.3787 3.46727 12.3842C3.39441 12.3897 3.32408 12.4133 3.26269 12.4529C3.20131 12.4926 3.15083 12.5469 3.11586 12.6111C3.08089 12.6752 3.06255 12.7471 3.0625 12.8202V18.5077C3.06255 18.5919 3.08689 18.6743 3.1326 18.745C3.17831 18.8157 3.24344 18.8717 3.32019 18.9063L13.8202 23.6488C13.8767 23.6742 13.938 23.6874 14 23.6874C14.062 23.6874 14.1233 23.6742 14.1798 23.6488L24.6798 18.9063C24.7566 18.8717 24.8217 18.8157 24.8674 18.745C24.9131 18.6743 24.9374 18.5919 24.9375 18.5077V12.8202C24.9375 12.7471 24.9192 12.6752 24.8843 12.611C24.8494 12.5468 24.7989 12.4924 24.7376 12.4527Z" fill="#2946ED"/>
<path d="M14.1798 23.6764L24.6798 18.9339C24.7566 18.8993 24.8217 18.8433 24.8674 18.7726C24.9131 18.7019 24.9374 18.6195 24.9375 18.5353V12.8478C24.9375 12.7747 24.9192 12.7028 24.8843 12.6386C24.8494 12.5743 24.7989 12.5199 24.7375 12.4802C24.6761 12.4405 24.6057 12.4169 24.5328 12.4114C24.4599 12.4059 24.3868 12.4188 24.3202 12.4488L14 17.1099V23.7162C14.0621 23.7158 14.1234 23.7023 14.1798 23.6764Z" fill="#2234DD"/>
<path d="M27.8001 8.00764C27.7387 7.96793 27.6683 7.94424 27.5954 7.93874C27.5225 7.93324 27.4493 7.9461 27.3827 7.97614L18.4752 11.9968L14 14.0189L0.617313 7.97658C0.550703 7.94655 0.477633 7.93368 0.404772 7.93915C0.331911 7.94461 0.261579 7.96824 0.200195 8.00787C0.138811 8.0475 0.0883309 8.10188 0.0533613 8.16603C0.0183916 8.23018 4.64445e-05 8.30208 2.90954e-08 8.37514V11.4376C-3.06938e-05 11.5219 0.0242703 11.6044 0.0699828 11.6752C0.115695 11.7459 0.180874 11.802 0.257688 11.8366L13.8202 17.9616C13.8767 17.9871 13.938 18.0003 14 18.0003C14.062 18.0003 14.1233 17.9871 14.1798 17.9616L27.7423 11.8366C27.8191 11.802 27.8843 11.7459 27.93 11.6752C27.9757 11.6044 28 11.5219 28 11.4376V8.37514C28 8.30206 27.9817 8.23014 27.9468 8.16594C27.9119 8.10175 27.8614 8.04732 27.8001 8.00764Z" fill="#376CFB"/>
<path d="M14.1798 17.9617L27.7423 11.8367C27.8191 11.802 27.8843 11.746 27.93 11.6752C27.9757 11.6044 28 11.5219 28 11.4377V8.37516C28 8.30206 27.9817 8.23011 27.9468 8.1659C27.9119 8.10169 27.8614 8.04725 27.8 8.00757C27.7386 7.96789 27.6682 7.94422 27.5953 7.93873C27.5224 7.93325 27.4493 7.94611 27.3827 7.97616L18.4752 11.9968L14 14.0189V18.0002C14.062 18.0002 14.1233 17.9871 14.1798 17.9617Z" fill="#2946ED"/>
<path d="M27.7424 7.97665L14.1799 1.85165C14.1234 1.82617 14.0621 1.81299 14.0001 1.81299C13.9381 1.81299 13.8768 1.82617 13.8203 1.85165L0.257805 7.97665C0.181174 8.01134 0.116169 8.06738 0.0705754 8.13807C0.0249816 8.20876 0.000732422 8.29109 0.000732422 8.37521C0.000732422 8.45933 0.0249816 8.54166 0.0705754 8.61235C0.116169 8.68304 0.181174 8.73908 0.257805 8.77377L13.8203 14.8988C13.8767 14.9246 13.9381 14.9379 14.0001 14.9377C14.0623 14.9377 14.1237 14.9244 14.1804 14.8988L20.9616 11.8363L27.7429 8.77377C27.8196 8.73914 27.8848 8.68309 27.9304 8.61235C27.9761 8.54162 28.0004 8.4592 28.0004 8.37499C28.0004 8.29078 27.9761 8.20837 27.9304 8.13763C27.8848 8.06689 27.8196 8.01084 27.7429 7.97621L27.7424 7.97665Z" fill="#4294FF"/>
<path d="M20.7811 23.6878C20.6651 23.6878 20.5538 23.6417 20.4718 23.5596C20.3897 23.4776 20.3436 23.3663 20.3436 23.2503V11.7204L13.8201 8.77383C13.7658 8.75152 13.7165 8.71851 13.6752 8.67677C13.634 8.63502 13.6015 8.5854 13.5798 8.53085C13.5581 8.4763 13.5476 8.41794 13.5489 8.35925C13.5503 8.30056 13.5634 8.24274 13.5875 8.18922C13.6117 8.13571 13.6463 8.0876 13.6895 8.04777C13.7326 8.00793 13.7833 7.97719 13.8385 7.95736C13.8938 7.93753 13.9525 7.92902 14.0111 7.93234C14.0697 7.93567 14.1271 7.95075 14.1797 7.9767L20.961 11.0392C21.0377 11.0738 21.1028 11.1298 21.1485 11.2005C21.1943 11.2712 21.2186 11.3536 21.2186 11.4378V23.2503C21.2186 23.3663 21.1726 23.4776 21.0905 23.5596C21.0085 23.6417 20.8972 23.6878 20.7811 23.6878Z" fill="#D0DBF7"/>
<path d="M22.5312 23.7456L21 22.8706C20.9339 22.8328 20.8591 22.813 20.783 22.813C20.7069 22.813 20.6321 22.8328 20.566 22.8706L19.0347 23.7456C18.9675 23.7836 18.9115 23.8388 18.8724 23.9055C18.8334 23.9722 18.8127 24.0481 18.8125 24.1253V26.7503C18.8125 26.8664 18.8586 26.9777 18.9406 27.0597C19.0227 27.1418 19.134 27.1878 19.25 27.1878H22.3125C22.4285 27.1878 22.5398 27.1418 22.6219 27.0597C22.7039 26.9777 22.75 26.8664 22.75 26.7503V24.1253C22.7502 24.0484 22.73 23.9728 22.6916 23.9061C22.6532 23.8394 22.5979 23.7841 22.5312 23.7456Z" fill="#D0DBF7"/>
</g>
<defs>
<clipPath id="clip0_5431_20503">
<rect width="28" height="28" fill="white" transform="translate(0 0.5)"/>
</clipPath>
</defs>
</svg>
