<svg width="40" height="40" viewBox="0 0 40 40" fill="none" xmlns="http://www.w3.org/2000/svg">
<path d="M26.25 3.375V5.625H4.375V3.375C4.375 2.55 5.03125 1.875 5.83333 1.875H24.7917C25.5938 1.875 26.25 2.55 26.25 3.375Z" fill="#ADB5BD"/>
<path d="M26.25 5.625V29.7857C26.25 30.5911 25.5938 31.25 24.7917 31.25H5.83333C5.03125 31.25 4.375 30.5911 4.375 29.7857V5.625H26.25Z" fill="#E9ECEF"/>
<path d="M22.375 12.5H8.875C8.4625 12.5 8.125 12.2188 8.125 11.875C8.125 11.5312 8.4625 11.25 8.875 11.25H22.375C22.7875 11.25 23.125 11.5312 23.125 11.875C23.125 12.2188 22.7875 12.5 22.375 12.5Z" fill="#ADB5BD"/>
<path d="M22.375 16.875H8.875C8.4625 16.875 8.125 16.5938 8.125 16.25C8.125 15.9062 8.4625 15.625 8.875 15.625H22.375C22.7875 15.625 23.125 15.9062 23.125 16.25C23.125 16.5938 22.7875 16.875 22.375 16.875Z" fill="#ADB5BD"/>
<path d="M22.375 21.25H8.875C8.4625 21.25 8.125 20.9688 8.125 20.625C8.125 20.2812 8.4625 20 8.875 20H22.375C22.7875 20 23.125 20.2812 23.125 20.625C23.125 20.9688 22.7875 21.25 22.375 21.25Z" fill="#ADB5BD"/>
<path d="M22.375 25H8.875C8.4625 25 8.125 24.7188 8.125 24.375C8.125 24.0312 8.4625 23.75 8.875 23.75H22.375C22.7875 23.75 23.125 24.0312 23.125 24.375C23.125 24.7188 22.7875 25 22.375 25Z" fill="#ADB5BD"/>
<path d="M36.25 9.625V11.875H14.375V9.625C14.375 8.8 15.0312 8.125 15.8333 8.125H34.7917C35.5938 8.125 36.25 8.8 36.25 9.625Z" fill="#6EA8FE"/>
<path d="M36.25 11.875V36.0357C36.25 36.8411 35.5938 37.5 34.7917 37.5H15.8333C15.0312 37.5 14.375 36.8411 14.375 36.0357V11.875H36.25Z" fill="#CFE2FF"/>
<path d="M19.9493 22.7556C19.7603 22.7556 19.5785 22.6829 19.4331 22.5448C19.1496 22.2612 19.1496 21.8032 19.4331 21.5196L22.0941 18.8587C22.3776 18.5751 22.8357 18.5751 23.1192 18.8587C23.4028 19.1422 23.4028 19.6002 23.1192 19.8838L20.4582 22.5448C20.3128 22.6902 20.1311 22.7556 19.942 22.7556H19.9493Z" fill="#6EA8FE"/>
<path d="M22.6103 22.7556C22.4213 22.7556 22.2395 22.6829 22.0941 22.5448L19.4331 19.8838C19.1496 19.6002 19.1496 19.1422 19.4331 18.8587C19.7167 18.5751 20.1747 18.5751 20.4582 18.8587L23.1192 21.5196C23.4028 21.8032 23.4028 22.2612 23.1192 22.5448C22.9738 22.6902 22.792 22.7556 22.603 22.7556H22.6103Z" fill="#6EA8FE"/>
<path d="M27.4668 22.7556C27.2777 22.7556 27.096 22.6829 26.9506 22.5448C26.667 22.2612 26.667 21.8032 26.9506 21.5196L29.6115 18.8587C29.8951 18.5751 30.3531 18.5751 30.6367 18.8587C30.9202 19.1422 30.9202 19.6002 30.6367 19.8838L27.9757 22.5448C27.8303 22.6902 27.6485 22.7556 27.4595 22.7556H27.4668Z" fill="#6EA8FE"/>
<path d="M30.1277 22.7556C29.9387 22.7556 29.757 22.6829 29.6115 22.5448L26.9506 19.8838C26.667 19.6002 26.667 19.1422 26.9506 18.8587C27.2341 18.5751 27.6922 18.5751 27.9757 18.8587L30.6367 21.5196C30.9202 21.8032 30.9202 22.2612 30.6367 22.5448C30.4913 22.6902 30.3095 22.7556 30.1205 22.7556H30.1277Z" fill="#6EA8FE"/>
<path d="M29.7419 29.8878C29.4801 29.8878 29.2329 29.7497 29.1021 29.5025C28.3023 27.9975 26.7465 27.0669 25.0452 27.0669C23.3439 27.0669 21.788 27.9975 20.9883 29.5025C20.7993 29.8587 20.3558 29.9896 20.0068 29.8005C19.6505 29.6115 19.5197 29.168 19.7087 28.819C20.7629 26.8415 22.8059 25.6128 25.0525 25.6128C27.299 25.6128 29.342 26.8415 30.3962 28.819C30.5852 29.1753 30.4544 29.6115 30.0981 29.8005C29.9891 29.8587 29.8727 29.8878 29.7564 29.8878H29.7419Z" fill="#6EA8FE"/>
</svg>
