<svg width="220" height="160" viewBox="0 0 220 160" fill="none" xmlns="http://www.w3.org/2000/svg">
<g clip-path="url(#clip0_3076_29919)">
<path d="M160.529 60.6062C148.814 60.6062 139.317 51.1094 139.317 39.3941C139.317 17.6371 121.68 0 99.9231 0C78.1665 0 60.5293 17.6371 60.5293 39.3937C60.5293 51.109 51.0325 60.6059 39.3172 60.6059C17.5602 60.6063 -0.0769043 78.2434 -0.0769043 100C-0.0769043 121.757 17.5602 139.394 39.3168 139.394C51.0321 139.394 60.529 148.891 60.529 160.606C60.5293 182.363 78.1665 200 99.9231 200C121.68 200 139.317 182.363 139.317 160.606C139.317 148.891 148.814 139.394 160.529 139.394C182.286 139.394 199.923 121.757 199.923 100C199.923 78.2434 182.286 60.6062 160.529 60.6062Z" fill="url(#paint0_linear_3076_29919)"/>
<path opacity="0.1" d="M87.2747 181.577V38.877C87.2747 35.3192 90.159 32.4348 93.7168 32.4348H172.697C176.255 32.4348 179.14 35.3192 179.14 38.877V181.577C179.14 185.135 176.255 188.019 172.697 188.019H93.7168C90.159 188.019 87.2747 185.135 87.2747 181.577Z" fill="#2626BC"/>
<path d="M87.2747 169.981V27.2813C87.2747 23.7235 90.159 20.8391 93.7168 20.8391H172.697C176.255 20.8391 179.14 23.7235 179.14 27.2813V169.981C179.14 173.539 176.255 176.423 172.697 176.423H93.7168C90.159 176.423 87.2747 173.539 87.2747 169.981Z" fill="#6583FE"/>
<path d="M89.198 33.7256H181.062V163.538H89.198V33.7256Z" fill="white"/>
<path d="M172.697 178.376H122.467C121.388 178.376 120.514 177.502 120.514 176.423C120.514 175.345 121.388 174.47 122.467 174.47H172.697C175.173 174.47 177.186 172.456 177.186 169.981V52.8513C177.186 51.7728 178.061 50.8982 179.139 50.8982C180.218 50.8982 181.093 51.7728 181.093 52.8513V169.981C181.093 174.61 177.326 178.376 172.697 178.376Z" fill="#2626BC"/>
<path d="M110.513 178.377H93.7168C89.0876 178.377 85.3215 174.611 85.3215 169.981V27.2813C85.3215 22.652 89.0879 18.886 93.7168 18.886H172.697C177.326 18.886 181.092 22.652 181.092 27.2813V40.8985C181.092 41.977 180.218 42.8516 179.139 42.8516C178.06 42.8516 177.186 41.977 177.186 40.8985V27.2813C177.186 24.8063 175.172 22.7922 172.697 22.7922H93.7168C91.2415 22.7922 89.2278 24.8059 89.2278 27.2813V169.982C89.2278 172.457 91.2415 174.471 93.7168 174.471H110.513C111.592 174.471 112.466 175.345 112.466 176.424C112.466 177.502 111.592 178.377 110.513 178.377Z" fill="#2626BC"/>
<path d="M112.546 61.9631L106.829 58.0682L101.112 61.9631C99.6867 62.9342 97.7559 61.9135 97.7559 60.1885V33.7256H115.903V60.1885C115.903 61.9135 113.972 62.9342 112.546 61.9631Z" fill="#6583FE"/>
<path d="M154.406 30.0273C155.445 30.0273 156.287 29.1853 156.287 28.1465C156.287 27.1077 155.445 26.2656 154.406 26.2656C153.367 26.2656 152.525 27.1077 152.525 28.1465C152.525 29.1853 153.367 30.0273 154.406 30.0273Z" fill="#2626BC"/>
<path d="M160.779 30.0273C161.818 30.0273 162.66 29.1853 162.66 28.1465C162.66 27.1077 161.818 26.2656 160.779 26.2656C159.741 26.2656 158.898 27.1077 158.898 28.1465C158.898 29.1853 159.741 30.0273 160.779 30.0273Z" fill="#2626BC"/>
<path d="M73.152 42.6086H71.8297V41.2864C71.8297 40.2079 70.9555 39.3333 69.8766 39.3333C68.7977 39.3333 67.9234 40.2079 67.9234 41.2864V42.6086H66.6016C65.5227 42.6086 64.6484 43.4833 64.6484 44.5618C64.6484 45.6403 65.5227 46.5149 66.6016 46.5149H67.9234V47.8368C67.9234 48.9153 68.7977 49.7899 69.8766 49.7899C70.9555 49.7899 71.8297 48.9153 71.8297 47.8368V46.5149H73.152C74.2309 46.5149 75.1051 45.6403 75.1051 44.5618C75.1051 43.4833 74.2305 42.6086 73.152 42.6086Z" fill="#6583FE"/>
<path d="M45.6067 93.6598H44.2844V92.3379C44.2844 91.2594 43.4102 90.3848 42.3313 90.3848C41.2524 90.3848 40.3782 91.2594 40.3782 92.3379V93.6598H39.0559C37.977 93.6598 37.1028 94.5344 37.1028 95.6129C37.1028 96.6914 37.977 97.566 39.0559 97.566H40.3782V98.8883C40.3782 99.9668 41.2524 100.841 42.3313 100.841C43.4102 100.841 44.2844 99.9668 44.2844 98.8883V97.566H45.6067C46.6856 97.566 47.5598 96.6914 47.5598 95.6129C47.5598 94.5344 46.6856 93.6598 45.6067 93.6598Z" fill="#6583FE"/>
<path d="M196.829 89.2086H195.508V87.8867C195.508 86.8082 194.633 85.9336 193.554 85.9336C192.476 85.9336 191.601 86.8082 191.601 87.8867V89.2086H190.279C189.2 89.2086 188.326 90.0832 188.326 91.1617C188.326 92.2402 189.2 93.1148 190.279 93.1148H191.601V94.4371C191.601 95.5156 192.476 96.3902 193.554 96.3902C194.633 96.3902 195.508 95.5156 195.508 94.4371V93.1148H196.829C197.908 93.1148 198.783 92.2402 198.783 91.1617C198.783 90.0832 197.908 89.2086 196.829 89.2086Z" fill="#6583FE"/>
<path d="M217.983 31.5217C217.484 31.5217 216.983 31.3311 216.603 30.9498L214.708 29.0557L212.814 30.9498C212.052 31.7123 210.814 31.7123 210.052 30.9498C209.289 30.1869 209.289 28.9502 210.052 28.1877L213.328 24.9127C213.694 24.5463 214.19 24.3408 214.708 24.3408C215.226 24.3408 215.723 24.5467 216.089 24.9127L219.364 28.1877C220.127 28.9506 220.127 30.1873 219.364 30.9498C218.983 31.3311 218.483 31.5217 217.983 31.5217Z" fill="#6583FE"/>
<path d="M76.4269 154.578C75.9273 154.578 75.4269 154.387 75.046 154.006L73.1515 152.112L71.257 154.006C70.4949 154.768 69.2574 154.768 68.4953 154.006C67.7324 153.243 67.7324 152.006 68.4953 151.244L71.7707 147.968C72.5328 147.206 73.7703 147.206 74.5324 147.968L77.8078 151.244C78.5707 152.007 78.5707 153.243 77.8078 154.006C77.4269 154.387 76.9269 154.578 76.4269 154.578Z" fill="#6583FE"/>
<path d="M130.068 151.923H103.752C103.054 151.923 102.487 151.113 102.487 150.113V142.195C102.487 141.195 103.054 140.385 103.752 140.385H130.068C130.767 140.385 131.333 141.195 131.333 142.195V150.113C131.333 151.113 130.767 151.923 130.068 151.923Z" fill="white"/>
<path d="M130.62 153.847H103.2C101.746 153.847 100.564 152.198 100.564 150.172V142.136C100.564 140.11 101.746 138.462 103.2 138.462H130.62C132.073 138.462 133.256 140.11 133.256 142.136V150.172C133.256 152.198 132.073 153.847 130.62 153.847ZM103.2 142.136V150.172H130.621L130.62 142.136H103.2Z" fill="#2626BC"/>
<path d="M122.683 124.042H103.34C102.261 124.042 101.386 123.167 101.386 122.089C101.386 121.01 102.261 120.136 103.34 120.136H122.683C123.762 120.136 124.636 121.01 124.636 122.089C124.636 123.167 123.762 124.042 122.683 124.042Z" fill="#2626BC"/>
<path d="M133.23 130.878H103.339C102.26 130.878 101.386 130.004 101.386 128.925C101.386 127.847 102.26 126.972 103.339 126.972H133.23C134.309 126.972 135.183 127.847 135.183 128.925C135.183 130.004 134.309 130.878 133.23 130.878Z" fill="#2626BC"/>
<path d="M103.944 116.99C105.023 116.99 105.897 116.116 105.897 115.037C105.897 113.958 105.023 113.084 103.944 113.084C102.866 113.084 101.991 113.958 101.991 115.037C101.991 116.116 102.866 116.99 103.944 116.99Z" fill="#2626BC"/>
<path d="M110.292 116.99C111.371 116.99 112.245 116.116 112.245 115.037C112.245 113.958 111.371 113.084 110.292 113.084C109.213 113.084 108.339 113.958 108.339 115.037C108.339 116.116 109.213 116.99 110.292 116.99Z" fill="#2626BC"/>
<path d="M87.2747 31.7725H179.139V35.6787H87.2747V31.7725Z" fill="#2626BC"/>
<path d="M207.986 163.538H150.527V102.711C150.527 102.058 150.684 101.414 150.983 100.833L177.435 49.5202C178.198 48.0401 180.314 48.0401 181.077 49.5202L207.53 100.833C207.829 101.414 207.985 102.057 207.985 102.711V163.538H207.986Z" fill="white"/>
<path d="M193.722 74.0485C189.87 76.6466 184.805 78.2239 179.257 78.2239C173.704 78.2239 168.64 76.6462 164.788 74.0485L177.433 49.5196C178.2 48.0403 180.314 48.0403 181.076 49.5196L193.722 74.0485Z" fill="#6583FE"/>
<path d="M150.527 163.537H169.68V111.292C169.68 106.003 165.393 101.716 160.104 101.716C154.815 101.716 150.528 106.003 150.528 111.292L150.527 163.537Z" fill="#6583FE"/>
<path d="M171.633 165.491H148.574L148.575 111.293C148.575 104.935 153.746 99.7629 160.104 99.7629C166.461 99.7629 171.633 104.935 171.633 111.293V165.491ZM152.481 161.584H167.727V111.293C167.727 107.089 164.307 103.669 160.104 103.669C155.9 103.669 152.481 107.089 152.481 111.293V161.584Z" fill="#2626BC"/>
<path d="M169.68 163.537H188.832V111.292C188.832 106.003 184.545 101.716 179.256 101.716C173.968 101.716 169.68 106.003 169.68 111.292L169.68 163.537Z" fill="white"/>
<path d="M190.786 165.49H167.727L167.727 111.292C167.727 104.935 172.899 99.7627 179.257 99.7627C185.614 99.7627 190.786 104.935 190.786 111.292V165.49H190.786ZM171.633 161.584H186.879V111.292C186.879 107.089 183.459 103.669 179.256 103.669C175.052 103.669 171.633 107.089 171.633 111.292V161.584Z" fill="#2626BC"/>
<path d="M188.833 163.537H207.985V111.292C207.985 106.003 203.698 101.716 198.409 101.716C193.12 101.716 188.833 106.003 188.833 111.292L188.833 163.537Z" fill="#6583FE"/>
<path d="M209.938 165.49H186.879L186.88 111.292C186.88 104.935 192.052 99.7627 198.409 99.7627C204.767 99.7627 209.939 104.935 209.939 111.292V165.49H209.938ZM190.786 161.584H206.032V111.292C206.032 107.089 202.613 103.669 198.409 103.669C194.206 103.669 190.786 107.089 190.786 111.292V161.584H190.786Z" fill="#2626BC"/>
<path d="M209.938 163.538H206.032V102.711C206.032 102.37 205.95 102.03 205.794 101.728L179.341 50.4148C179.327 50.3859 179.315 50.3629 179.256 50.3629C179.198 50.3629 179.186 50.3859 179.171 50.4148L152.719 101.728C152.563 102.03 152.48 102.371 152.48 102.711V163.538H148.574V102.711C148.574 101.751 148.807 100.793 149.246 99.9387L175.699 48.6254C176.388 47.2879 177.751 46.457 179.256 46.457C180.761 46.457 182.124 47.2879 182.813 48.6254L209.265 99.9383C209.705 100.791 209.938 101.75 209.938 102.711L209.938 163.538Z" fill="#2626BC"/>
<path d="M134.346 99.2911H110.306C109.174 99.2911 108.257 98.3739 108.257 97.2422V73.2024C108.257 72.0708 109.174 71.1536 110.306 71.1536H134.346C135.478 71.1536 136.395 72.0708 136.395 73.2024V97.2426C136.395 98.3739 135.478 99.2911 134.346 99.2911Z" fill="#6583FE"/>
</g>
<defs>
<linearGradient id="paint0_linear_3076_29919" x1="170.659" y1="29.2637" x2="-1.6394" y2="201.563" gradientUnits="userSpaceOnUse">
<stop stop-color="#D2DEFF" stop-opacity="0"/>
<stop offset="1" stop-color="#B7C5FF"/>
</linearGradient>
<clipPath id="clip0_3076_29919">
<rect width="220" height="160" fill="white"/>
</clipPath>
</defs>
</svg>
