<svg width="20" height="20" viewBox="0 0 20 20" fill="none" xmlns="http://www.w3.org/2000/svg">
<g clip-path="url(#clip0_763_24730)">
<mask id="mask0_763_24730" style="mask-type:luminance" maskUnits="userSpaceOnUse" x="0" y="0" width="20" height="20">
<path d="M20 0H0V20H20V0Z" fill="white"/>
</mask>
<g mask="url(#mask0_763_24730)">
<path d="M10 0.5C15.2467 0.5 19.5 4.75329 19.5 10C19.5 15.2467 15.2467 19.5 10 19.5C4.75329 19.5 0.5 15.2467 0.5 10C0.5 4.75329 4.75329 0.5 10 0.5Z" stroke="#6C757D"/>
<path d="M5.69242 12.4052L5.5036 13.9682C5.49476 14.0347 5.50028 14.1024 5.5198 14.1666C5.53931 14.2309 5.57236 14.2902 5.61673 14.3406C5.66109 14.3909 5.71574 14.4312 5.77698 14.4587C5.83823 14.4862 5.90466 14.5003 5.97179 14.4999C5.99179 14.5 6.01177 14.4987 6.0316 14.4962L7.5946 14.3074C7.92319 14.2657 8.22853 14.1158 8.46235 13.8812L12.5124 9.83117C12.5475 9.79601 12.5673 9.74832 12.5673 9.69861C12.5673 9.64889 12.5475 9.60121 12.5124 9.56604L10.4345 7.48629C10.3993 7.45114 10.3516 7.4314 10.3019 7.4314C10.2522 7.4314 10.2045 7.45114 10.1694 7.48629L6.1186 11.5374C5.88401 11.7712 5.73405 12.0766 5.69242 12.4052Z" fill="#6C757D"/>
<path d="M14.2154 6.75421L13.246 5.78484C13.1558 5.69454 13.0486 5.6229 12.9307 5.57403C12.8127 5.52516 12.6863 5.5 12.5587 5.5C12.4311 5.5 12.3046 5.52516 12.1866 5.57403C12.0687 5.6229 11.9615 5.69454 11.8713 5.78484L10.9611 6.69496C10.926 6.73012 10.9062 6.77781 10.9062 6.82752C10.9062 6.87724 10.926 6.92493 10.9611 6.96009L13.0401 9.03909C13.0753 9.07424 13.123 9.09398 13.1727 9.09398C13.2224 9.09398 13.2701 9.07424 13.3053 9.03909L14.2154 8.12896C14.3057 8.03871 14.3773 7.93156 14.4262 7.81361C14.4751 7.69567 14.5002 7.56925 14.5002 7.44159C14.5002 7.31392 14.4751 7.1875 14.4262 7.06956C14.3773 6.95162 14.3057 6.84446 14.2154 6.75421Z" fill="#6C757D"/>
<path d="M14.5 14.125C14.5 14.0255 14.4605 13.9302 14.3902 13.8598C14.3198 13.7895 14.2245 13.75 14.125 13.75H9.8125C9.71304 13.75 9.61766 13.7895 9.54734 13.8598C9.47701 13.9302 9.4375 14.0255 9.4375 14.125C9.4375 14.2245 9.47701 14.3198 9.54734 14.3902C9.61766 14.4605 9.71304 14.5 9.8125 14.5H14.125C14.2245 14.5 14.3198 14.4605 14.3902 14.3902C14.4605 14.3198 14.5 14.2245 14.5 14.125Z" fill="#6C757D"/>
</g>
</g>
<defs>
<clipPath id="clip0_763_24730">
<rect width="20" height="20" fill="white"/>
</clipPath>
</defs>
</svg>
